<svg width="200" height="56" viewBox="0 0 200 56" fill="none" xmlns="http://www.w3.org/2000/svg">
    <mask id="mask0_1162_8348" style="mask-type:alpha" maskUnits="userSpaceOnUse" x="0" y="0"
        width="200" height="56">
        <rect x="0.25" y="0.25" width="199.5" height="55.5" fill="#D9D9D9" stroke="#B3B3B4"
            stroke-width="0.5" />
    </mask>
    <g mask="url(#mask0_1162_8348)"></g>
    <g clip-path="url(#clip0_1162_8348)">
        <path
            d="M41.4239 40.267L38.033 51.4902C35.9414 44.595 33.9525 38.0442 31.8974 31.2689L39.0857 29.7608C39.0857 29.6214 39.1017 29.4819 39.1108 29.3446C38.1974 29.1441 37.3046 28.9305 36.4004 28.7453C34.6923 28.3966 32.9752 28.0915 31.2786 27.7036C31.1236 27.64 30.9847 27.5454 30.8713 27.4262C30.7579 27.3071 30.6725 27.1661 30.621 27.0128C30.2106 25.8885 29.8631 24.7442 29.5797 23.5848C29.4825 23.0787 29.5371 22.5567 29.7373 22.0789C30.8775 19.9258 32.055 17.8192 33.2698 15.7591C33.3652 15.6117 33.5003 15.4914 33.6608 15.4105C33.8214 15.3297 34.0018 15.2913 34.1831 15.2993C34.7649 15.3527 35.3282 15.5228 35.8363 15.7983C37.8503 16.9163 39.7616 15.8768 41.6911 15.2862C42.2254 15.1206 42.5748 15.2492 42.9059 15.8964C43.4676 16.9991 44.0864 18.0408 44.8263 19.3701L38.5673 20.6537L38.5536 21.1114L46.6873 22.7981C46.2306 24.3693 45.8333 25.7793 45.4154 27.1762C44.4632 30.3361 43.4882 33.4786 42.5542 36.6495C42.2802 37.5822 41.9149 38.0398 41.1842 38.1313C39.8643 38.2948 38.5559 38.6631 37.2407 38.9464L37.227 39.3496L41.4239 40.267Z"
            fill="#D77C29" />
        <path
            d="M37.738 13.4861C36.9344 11.758 36.2404 10.3023 35.5875 8.83126C35.4853 8.56607 35.4749 8.27657 35.5578 8.00532C36.2221 5.92195 36.9161 3.84948 37.7243 1.39999C38.5508 3.89088 39.2722 6.02437 39.9502 8.16876C39.9902 8.45044 39.9367 8.737 39.7973 8.98816C39.1717 10.3938 38.5188 11.7885 37.7426 13.4861"
            fill="#208044" />
        <path
            d="M36.7004 14.177C34.9357 13.1418 33.3536 12.3006 31.8925 11.3047C31.4359 10.9953 31.2532 10.2761 31.0318 9.71386C30.6893 8.84216 30.4222 7.9443 30.146 7.12054C34.2896 7.66972 35.5019 10.7098 36.7004 14.177Z"
            fill="#208044" />
        <path
            d="M45.1195 6.71956C45.1857 11.0258 42.0626 12.4597 38.6747 14.116C39.4555 12.4096 39.8413 10.7207 40.8709 9.55041C41.9005 8.38015 43.5922 7.69586 45.1195 6.71738"
            fill="#208044" />
        <path d="M37.9805 52.3619L29.9976 53.3556L37.9805 54.6L45.7031 53.4798L37.9805 52.3619Z"
            fill="#B3B3B4" />
        <path d="M107.178 29.1245V15.4235H110.103V26.8014H117.369V29.1288L107.178 29.1245Z"
            fill="#52605F" />
        <path d="M119.367 29.1245V15.3058H122.289V29.1245H119.367Z" fill="#52605F" />
        <path
            d="M125.085 15.3058H130.873C131.73 15.2885 132.586 15.3344 133.435 15.4431C133.977 15.5256 134.493 15.7205 134.947 16.0141C135.403 16.3142 135.783 16.7082 136.059 17.1669C136.358 17.6575 136.511 18.2165 136.502 18.7839C136.504 19.4182 136.313 20.0395 135.952 20.5719C135.591 21.1044 135.075 21.525 134.467 21.7826C135.271 21.9769 135.985 22.417 136.502 23.0356C136.979 23.6333 137.23 24.3677 137.214 25.119C137.213 25.7554 137.057 26.3829 136.758 26.9518C136.474 27.5211 136.041 28.0111 135.502 28.3748C134.918 28.7485 134.243 28.9735 133.543 29.0286C133.054 29.0794 131.879 29.1107 130.017 29.1223H125.085V15.3058ZM128.01 17.6028V20.7975H129.928C131.068 20.7975 131.776 20.7816 132.052 20.7496C132.493 20.7186 132.91 20.544 133.232 20.2549C133.377 20.1124 133.489 19.9432 133.563 19.7577C133.637 19.5723 133.67 19.3744 133.661 19.1762C133.679 18.7966 133.546 18.4247 133.289 18.1345C132.999 17.8464 132.606 17.6729 132.189 17.6485C131.899 17.618 131.067 17.6028 129.69 17.6028H128.01ZM128.01 23.0967V26.8014H130.716C131.385 26.8216 132.056 26.7932 132.721 26.7164C133.13 26.6529 133.504 26.4585 133.782 26.165C134.068 25.8361 134.214 25.417 134.191 24.9904C134.203 24.6162 134.093 24.2476 133.876 23.9357C133.651 23.6366 133.331 23.4149 132.963 23.3037C132.564 23.1729 131.699 23.1068 130.369 23.1054L128.01 23.0967Z"
            fill="#52605F" />
        <path
            d="M139.694 29.1245V15.3058H145.846C147.394 15.3058 148.518 15.43 149.218 15.6785C149.92 15.9275 150.513 16.3941 150.904 17.0035C151.33 17.6564 151.55 18.4133 151.536 19.1827C151.572 20.1247 151.229 21.0441 150.577 21.7521C149.938 22.4276 148.983 22.8533 147.714 23.0291C148.292 23.3403 148.819 23.731 149.278 24.1885C149.897 24.888 150.452 25.6376 150.936 26.4287L152.703 29.1245H149.214L147.102 26.1171C146.633 25.4097 146.119 24.7313 145.56 24.086C145.319 23.8304 145.018 23.6332 144.681 23.5107C144.201 23.3878 143.705 23.3356 143.208 23.356H142.617V29.1245H139.694ZM142.617 21.1506H144.77C146.172 21.1506 147.048 21.0939 147.399 20.9806C147.732 20.8784 148.021 20.6728 148.218 20.3966C148.424 20.0872 148.527 19.7255 148.513 19.3592C148.533 18.951 148.394 18.55 148.125 18.2326C147.836 17.9326 147.445 17.741 147.022 17.6921C146.793 17.6594 146.074 17.6442 144.889 17.6442H142.606L142.617 21.1506Z"
            fill="#52605F" />
        <path
            d="M167.349 29.1245H164.18L162.915 25.9864H157.117L155.92 29.1245H152.819L158.471 15.3058H161.563L167.349 29.1245ZM161.965 23.6589L159.971 18.5311L158.014 23.6589H161.965Z"
            fill="#52605F" />
        <path d="M107.011 51.0543V37.2357H109.934V51.0543H107.011Z" fill="#52605F" />
        <path
            d="M112.75 51.0543V37.2357H115.595L121.52 46.4648V37.2357H124.235V51.0543H121.303L115.465 42.0431V51.0543H112.75Z"
            fill="#52605F" />
        <path
            d="M136.591 45.9745L139.427 46.8331C138.992 48.3411 138.269 49.4613 137.258 50.1935C136.247 50.9257 134.965 51.2889 133.413 51.2831C131.49 51.2831 129.909 50.657 128.67 49.4046C127.431 48.1523 126.812 46.4379 126.813 44.2616C126.813 41.9617 127.436 40.1755 128.681 38.9028C129.926 37.6301 131.56 36.9952 133.581 36.9981C135.352 36.9981 136.79 37.4979 137.897 38.4974C138.555 39.0888 139.048 39.9372 139.377 41.0428L136.484 41.6966C136.347 41.0301 135.966 40.4321 135.408 40.0101C134.85 39.5882 134.153 39.3702 133.442 39.3953C132.951 39.3798 132.462 39.4697 132.012 39.6583C131.562 39.8468 131.162 40.1293 130.841 40.4849C130.172 41.2201 129.837 42.4107 129.837 44.0567C129.837 45.8001 130.166 47.0445 130.825 47.7898C131.136 48.1502 131.529 48.4378 131.974 48.6305C132.42 48.8232 132.906 48.9158 133.394 48.9012C134.132 48.9149 134.848 48.6628 135.399 48.1951C135.952 47.7259 136.349 46.9856 136.591 45.9745Z"
            fill="#52605F" />
        <path
            d="M141.934 51.0543V37.2357H152.667V39.574H144.859V42.638H152.128V44.9655H144.859V48.7269H152.947V51.0543H141.934Z"
            fill="#52605F" />
        <path
            d="M155.457 51.0543V37.2357H158.302L164.239 46.4648V37.2357H166.943V51.0543H164.011L158.172 42.0431V51.0543H155.457Z"
            fill="#52605F" />
        <path d="M173.295 51.0543V39.574H168.998V37.2357H180.504V39.574H176.218V51.0543H173.295Z"
            fill="#52605F" />
        <path d="M182.301 51.0543V37.2357H185.226V51.0543H182.301Z" fill="#52605F" />
        <path
            d="M186.539 51.0543L191.487 43.8432L187.014 37.2357H190.439L193.342 41.677L196.187 37.2357H199.575L195.07 43.9478L200.018 51.0543H196.493L193.284 46.2752L190.062 51.0543H186.539Z"
            fill="#52605F" />
        <path d="M0 51.281V15.077H7.72261V45.1311H26.9264V51.281H0Z" fill="#D77C29" />
        <path
            d="M52.1151 51.4859L65.1878 32.437L53.3413 14.9877H62.37L70.0401 26.7142L77.5549 14.9877H86.5037L74.6047 32.7159L87.6843 51.4859H78.3632L69.8734 38.8614L61.379 51.4859H52.1151Z"
            fill="#D77C29" />
        <path d="M96.3613 15.3516V51.2374" stroke="#B3B3B4" stroke-width="0.5" />
    </g>
    <defs>
        <clipPath id="clip0_1162_8348">
            <rect width="200" height="53.2" fill="white" transform="translate(0 1.39999)" />
        </clipPath>
    </defs>
</svg>
