<?xml version="1.0" encoding="UTF-8"?>
<svg width="512px" height="512px" viewBox="0 0 512 512" version="1.1" xmlns="http://www.w3.org/2000/svg" xmlns:xlink="http://www.w3.org/1999/xlink">
    <title>Message</title>
    <g id="Message" stroke="none" stroke-width="1" fill="none" fill-rule="evenodd">
        <g id="Group" fill="#000000" fill-rule="nonzero">
            <path d="M96,0 L32,0 C14.304,0 0,14.304 0,32 L0,96 C0,113.664 14.304,128 32,128 L96,128 C113.696,128 128,113.664 128,96 L128,32 C128,14.304 113.696,0 96,0 M288,0 L224,0 C206.304,0 192,14.304 192,32 L192,96 C192,113.664 206.304,128 224,128 L288,128 C305.696,128 320,113.664 320,96 L320,32 C320,14.304 305.696,0 288,0 M480,0 L416,0 C398.304,0 384,14.304 384,32 L384,96 C384,113.664 398.304,128 416,128 L480,128 C497.696,128 512,113.664 512,96 L512,32 C512,14.304 497.696,0 480,0 M96,192 L32,192 C14.304,192 0,206.304 0,224 L0,288 C0,305.664 14.304,320 32,320 L96,320 C113.696,320 128,305.664 128,288 L128,224 C128,206.304 113.696,192 96,192 M288,192 L224,192 C206.304,192 192,206.304 192,224 L192,288 C192,305.664 206.304,320 224,320 L288,320 C305.696,320 320,305.664 320,288 L320,224 C320,206.304 305.696,192 288,192 M480,192 L416,192 C398.304,192 384,206.304 384,224 L384,288 C384,305.664 398.304,320 416,320 L480,320 C497.696,320 512,305.664 512,288 L512,224 C512,206.304 497.696,192 480,192 M96,384 L32,384 C14.304,384 0,398.304 0,416 L0,480 C0,497.664 14.304,512 32,512 L96,512 C113.696,512 128,497.664 128,480 L128,416 C128,398.304 113.696,384 96,384 M288,384 L224,384 C206.304,384 192,398.304 192,416 L192,480 C192,497.664 206.304,512 224,512 L288,512 C305.696,512 320,497.664 320,480 L320,416 C320,398.304 305.696,384 288,384 M480,384 L416,384 C398.304,384 384,398.304 384,416 L384,480 C384,497.664 398.304,512 416,512 L480,512 C497.696,512 512,497.664 512,480 L512,416 C512,398.304 497.696,384 480,384" id="Shape"></path>
        </g>
    </g>
</svg>