<svg version="1.2" xmlns="http://www.w3.org/2000/svg" xmlns:xlink="http://www.w3.org/1999/xlink" overflow="visible" preserveAspectRatio="none" viewBox="0 0 386 514" width="20" height="24"><g transform="translate(1, 1)"><path class="" d="M376 232H216V72c0-4.42-3.58-8-8-8h-32c-4.42 0-8 3.58-8 8v160H8c-4.42 0-8 3.58-8 8v32c0 4.42 3.58 8 8 8h160v160c0 4.42 3.58 8 8 8h32c4.42 0 8-3.58 8-8V280h160c4.42 0 8-3.58 8-8v-32c0-4.42-3.58-8-8-8z" fill="currentColor" vector-effect="non-scaling-stroke" style="fill: rgb(119, 119, 119);"/></g></svg>