<svg width="27" height="24" viewBox="0 0 27 24" fill="none" xmlns="http://www.w3.org/2000/svg">
<rect x="0.5" width="26" height="24" rx="8" fill="#38C5BF"/>
<path d="M8.75999 11.2667C7.24666 10.8733 6.75999 10.4667 6.75999 9.83333C6.75999 9.10667 7.43333 8.6 8.55999 8.6C9.74666 8.6 10.1867 9.16667 10.2267 10H11.7C11.6533 8.85333 10.9533 7.8 9.55999 7.46V6H7.55999V7.44C6.26666 7.72 5.22666 8.56 5.22666 9.84667C5.22666 11.3867 6.49999 12.1533 8.35999 12.6C10.0267 13 10.36 13.5867 10.36 14.2067C10.36 14.6667 10.0333 15.4 8.55999 15.4C7.18666 15.4 6.64666 14.7867 6.57333 14H5.10666C5.18666 15.46 6.27999 16.28 7.55999 16.5533V18H9.55999V16.5667C10.86 16.32 11.8933 15.5667 11.8933 14.2C11.8933 12.3067 10.2733 11.66 8.75999 11.2667Z" fill="white"/>
<path d="M16.8333 7V8.33333H21.2267L13.5 16.06L14.44 17L22.1667 9.27333V13.6667H23.5V7H16.8333Z" fill="white"/>
</svg>
