<svg width="27" height="24" viewBox="0 0 27 24" fill="none" xmlns="http://www.w3.org/2000/svg">
<rect x="0.5" width="26" height="24" rx="8" fill="#AF52DE"/>
<path d="M8.76 11.2667C7.24667 10.8733 6.76 10.4667 6.76 9.83333C6.76 9.10667 7.43333 8.6 8.56 8.6C9.74667 8.6 10.1867 9.16667 10.2267 10H11.7C11.6533 8.85333 10.9533 7.8 9.56 7.46V6H7.56V7.44C6.26667 7.72 5.22667 8.56 5.22667 9.84667C5.22667 11.3867 6.5 12.1533 8.36 12.6C10.0267 13 10.36 13.5867 10.36 14.2067C10.36 14.6667 10.0333 15.4 8.56 15.4C7.18667 15.4 6.64667 14.7867 6.57333 14H5.10667C5.18667 15.46 6.28 16.28 7.56 16.5533V18H9.56V16.5667C10.86 16.32 11.8933 15.5667 11.8933 14.2C11.8933 12.3067 10.2733 11.66 8.76 11.2667Z" fill="white"/>
<path d="M20.1667 17V15.6667H15.7733L23.5 7.94L22.56 7L14.8333 14.7267V10.3333H13.5V17H20.1667Z" fill="white"/>
</svg>
