<?xml version="1.0" encoding="UTF-8"?>
<svg width="512px" height="512px" viewBox="0 0 512 512" version="1.1" xmlns="http://www.w3.org/2000/svg" xmlns:xlink="http://www.w3.org/1999/xlink">
    <title>NoWifi</title>
    <g id="NoWifi" stroke="none" stroke-width="1" fill="none" fill-rule="evenodd">
        <g id="Group" transform="translate(1.000000, 85.000000)" fill="#000000" fill-rule="nonzero">
            <path d="M21.4347654,187 C74.8781393,187 128.321513,187 181.605355,187 C266.795688,187 351.826489,187 437.016822,187 C456.479782,187 476.102275,187 495.565235,187 C516.144922,187 516.144922,156 495.565235,156 C442.121861,156 388.678487,156 335.394645,156 C250.204312,156 165.173511,156 79.983178,156 C60.520218,156 40.8977255,156 21.4347654,156 C0.855078187,156 0.855078187,187 21.4347654,187 L21.4347654,187 Z" id="Path"></path>
            <path d="M212.334745,314.981478 C158.186,269.563967 104.037256,224.146456 49.8885121,178.888305 C42.2439835,172.513917 34.7587159,166.13953 27.1141873,159.765142 C27.1141873,167.255047 27.1141873,174.744953 27.1141873,182.234858 C81.2629315,136.817347 135.411676,91.3998359 189.56042,46.1416846 C197.204948,39.767297 204.690216,33.3929095 212.334745,27.018522 C218.864446,21.4409329 218.068141,10.1263951 212.334745,4.54880603 C205.805043,-1.98494117 196.408643,-1.02878304 189.878942,4.54880603 C135.730198,49.9663171 81.5814535,95.3838281 27.4327094,140.641979 C19.7881808,147.016367 12.3029132,153.390754 4.65838461,159.765142 C-1.55279487,165.024012 -1.55279487,177.135348 4.65838461,182.234858 C58.8071288,227.652369 112.955873,273.06988 167.104617,318.328031 C174.749146,324.702419 182.234413,331.076806 189.878942,337.451194 C196.408643,343.028783 205.964304,343.984941 212.334745,337.451194 C218.068141,331.714245 219.023707,320.399707 212.334745,314.981478 L212.334745,314.981478 Z" id="Path"></path>
        </g>
    </g>
</svg>