<svg version="1.2" xmlns="http://www.w3.org/2000/svg" xmlns:xlink="http://www.w3.org/1999/xlink" overflow="visible" preserveAspectRatio="none" viewBox="0 -2.499092558983669 54 54" width="26" height="26"><g>
	<g>
		<path d="M46,19c0-0.3,0-0.7,0-1v-0.1C46,8,38,0,28.1,0h-0.1c-8.5,0-15.7,5.9-17.5,14C4.6,14.5,0,19.4,0,25.3v0.4    C0,31.9,5.1,37,11.3,37H19v-2h-7.7C6.2,35,2,30.8,2,25.7v-0.4c0-5.1,4.2-9.3,9.3-9.3l0.8,0l0.1-0.8C13.6,7.5,20.2,2,27.9,2h0.1    C36.9,2,44,9.1,44,17.9v0.1c0,0.6,0,1.2-0.1,1.8L43.8,21h1.5c3.7,0,6.8,3,6.8,6.8v0.5c0,3.7-3,6.8-6.8,6.8H37v2h8.2    c4.8,0,8.8-3.9,8.8-8.8v-0.5C54,23.2,50.5,19.4,46,19z M34,41.1c-0.3,0-0.5,0.1-0.7,0.3L29,45.8V27c0-0.6-0.4-1-1-1s-1,0.4-1,1    v18.8l-4.3-4.2c-0.2-0.2-0.4-0.3-0.7-0.3c-0.3,0-0.5,0.1-0.7,0.3c-0.4,0.4-0.4,1,0,1.4l6,5.9c0.3,0.3,0.8,0.4,1.2,0.1    c0.1,0,0.3-0.1,0.4-0.2l5.9-6c0.4-0.4,0.4-1,0-1.4C34.6,41.2,34.3,41.1,34,41.1z" style="fill: rgb(0, 140, 191);" vector-effect="non-scaling-stroke"/>
	</g>
</g><g/></svg>