<svg version="1.2" xmlns="http://www.w3.org/2000/svg" xmlns:xlink="http://www.w3.org/1999/xlink" overflow="visible" preserveAspectRatio="none" viewBox="0 0 843.8889770507812 597.281005859375" xml:space="preserve" height="22" width="22" y="0px" x="0px" id="Layer_1_1554972094436"><g transform="translate(1, 1)"><path d="M550.793,2.314c-78.881,0-150.3,11.869-202.077,30.858c-1.46,0.528-83.59,27.693-83.59,74.641v22.022  C128.948,134.451,5.43,175.596,5.43,234.411v253.197c0,58.289,127.9,105.499,285.666,105.499  c157.767,0,285.667-47.21,285.667-105.499v-21.627c145.593-4.88,259.696-49.98,259.696-104.972V107.813  C836.459,59.02,735.665,2.314,550.793,2.314z M524.823,487.608c0,18.331-81.967,63.3-233.728,63.3  c-151.76,0-233.727-44.969-233.727-63.3V421.54c51.615,27.166,136.99,44.969,233.727,44.969c96.738,0,182.113-17.803,233.728-44.969  V487.608z M524.823,361.01c0,18.331-81.967,63.3-233.728,63.3c-151.76,0-233.727-44.969-233.727-63.3v-66.068  c51.615,27.166,136.99,44.969,233.727,44.969c96.738,0,182.113-17.803,233.728-44.969V361.01z M291.096,297.711  c-131.471,0-238.11-28.353-238.11-63.299s106.639-63.299,238.11-63.299c131.473,0,238.109,28.353,238.109,63.299  S422.569,297.711,291.096,297.711z M784.521,361.01c0,17.275-73.041,57.497-207.758,62.376v-84.531  c85.699-2.901,160.848-19.253,207.758-43.913V361.01z M784.521,234.411c0,17.275-73.201,57.233-207.758,62.244v-62.244  c0-7.385-2.76-14.506-6.654-21.496c88.621-2.241,166.205-19.121,214.412-44.573V234.411z M550.793,171.112  c-11.849,0-22.724-0.659-33.925-1.188c-59.892-28.616-137.961-37.188-187.628-39.561c-10.226-6.989-16.394-14.507-16.394-22.55  c0-34.947,106.639-63.299,238.109-63.299c131.47,0,238.109,28.352,238.109,63.299C789.065,142.76,682.265,171.112,550.793,171.112z" vector-effect="non-scaling-stroke" style="fill: rgb(0, 140, 191);"/></g></svg>