<svg width="40" height="26" viewBox="0 0 40 26" fill="none" xmlns="http://www.w3.org/2000/svg">
<path d="M18.9008 18.5882C18.3902 20.3699 17.8901 22.0787 17.3483 23.9542C16.3897 20.6616 15.4832 17.5254 14.5455 14.285C15.6707 14.0349 16.7439 13.8057 17.8276 13.566C17.8276 13.5035 17.838 13.4306 17.838 13.3681C17.4212 13.2743 17.0148 13.1701 16.5981 13.0867C15.8166 12.92 15.0352 12.7742 14.2641 12.5866C14.1495 12.5554 14.0141 12.4095 13.962 12.2532C13.7848 11.7218 13.6077 11.18 13.4827 10.6173C13.441 10.409 13.4618 10.0651 13.5556 9.89841C14.0766 8.86689 14.6184 7.85622 15.1706 6.87679C15.254 6.73092 15.4519 6.64757 15.5874 6.65799C15.8375 6.68924 16.1084 6.76218 16.3376 6.89763C17.2545 7.42902 18.1297 6.93931 19.0049 6.64757C19.2446 6.56421 19.4113 6.62673 19.5572 6.93931C19.8177 7.4707 20.099 7.96041 20.4324 8.59599C19.4217 8.8148 18.5048 9.01277 17.5775 9.21073C17.5775 9.28367 17.5775 9.35661 17.5671 9.42954C18.7757 9.69003 19.9948 9.96093 21.2764 10.2318C21.068 10.982 20.8909 11.6593 20.6929 12.3261C20.2553 13.8369 19.8177 15.3373 19.3905 16.8586C19.2654 17.3066 19.0987 17.5254 18.7653 17.5671C18.161 17.6504 17.5671 17.8171 16.9627 17.9526C16.9627 18.0151 16.9628 18.0776 16.9523 18.1401C17.6088 18.286 18.2235 18.4319 18.9008 18.5882Z" fill="#D77C29"/>
<path d="M17.2232 5.78276C16.8586 4.95962 16.5356 4.26153 16.2438 3.55301C16.1917 3.4384 16.1917 3.2821 16.2334 3.15707C16.5356 2.15681 16.8481 1.16697 17.2232 0C17.5983 1.18781 17.9318 2.20891 18.2339 3.24043C18.2652 3.35504 18.2131 3.51133 18.161 3.63636C17.8692 4.3032 17.5775 4.97004 17.2232 5.78276Z" fill="#208044"/>
<path d="M16.7439 6.11617C15.9417 5.61604 15.2123 5.22011 14.5455 4.74082C14.3371 4.59495 14.2537 4.2511 14.1495 3.9802C13.9932 3.56343 13.8682 3.13623 13.7432 2.7403C15.6499 3.00078 16.2021 4.45949 16.7439 6.11617Z" fill="#208044"/>
<path d="M20.5887 2.55275C20.62 4.61579 19.1925 5.29304 17.6504 6.08492C18.0047 5.27221 18.1818 4.45949 18.6507 3.90727C19.13 3.3342 19.8906 3.0112 20.5887 2.55275Z" fill="#208044"/>
<path d="M17.3274 24.3709L13.6911 24.8502L17.3274 25.4441L20.8596 24.9023L17.3274 24.3709Z" fill="#B3B3B4"/>
<path d="M0 23.85V6.54337H3.52175V20.9117H12.2844V23.85H0Z" fill="#D77C29"/>
<path d="M23.777 23.9542L29.7369 14.8476L24.3397 6.50169H28.4553L31.9562 12.1073L35.3842 6.50169H39.4686L34.0401 14.9831L40 23.9646H35.7489L31.8833 17.9109L28.0073 23.9437H23.777V23.9542Z" fill="#D77C29"/>
</svg>
