<svg version="1.2" xmlns="http://www.w3.org/2000/svg" xmlns:xlink="http://www.w3.org/1999/xlink" overflow="visible" preserveAspectRatio="none" viewBox="334.375 22.851999282836914 133.25 106.2969970703125" xml:space="preserve" height="10" width="12" y="0px" x="0px" id="Layer_1_1555509055779"><g transform="translate(1, 1)"><path d="M463.867,33.398H336.133c-0.971,0-1.758-0.787-1.758-1.758v-7.031c0-0.971,0.787-1.758,1.758-1.758h127.734  c0.971,0,1.758,0.787,1.758,1.758v7.031C465.625,32.611,464.838,33.398,463.867,33.398z M463.867,80.273H336.133  c-0.971,0-1.758-0.787-1.758-1.758v-7.031c0-0.971,0.787-1.758,1.758-1.758l0,0h127.734c0.971,0,1.758,0.787,1.758,1.758l0,0v7.031  C465.625,79.486,464.838,80.273,463.867,80.273z M463.867,127.148H336.133c-0.971,0-1.758-0.787-1.758-1.758v-7.031  c0-0.971,0.787-1.758,1.758-1.758h127.734c0.971,0,1.758,0.787,1.758,1.758v7.031C465.625,126.361,464.838,127.148,463.867,127.148z" vector-effect="non-scaling-stroke" style="fill: rgb(255, 255, 255);"/></g></svg>