<?xml version="1.0" encoding="UTF-8"?>
<svg width="12px" height="10px" viewBox="0 0 12 10" version="1.1"
    xmlns="http://www.w3.org/2000/svg">
    <title>menu_icon</title>
    <g id="Page-1" stroke="none" stroke-width="1" fill="none" fill-rule="evenodd">
        <g id="menu_icon" fill="#FFFFFF" fill-rule="nonzero">
            <path
                d="M5.95340539,1.02646154 L0.114136821,1.02646154 C0.0697482498,1.02646154 0.0337711069,0.955587242 0.0337711069,0.868142589 L0.0337711069,0.234956848 C0.0337711069,0.147512195 0.0697482498,0.0766378987 0.114136821,0.0766378987 L5.95340539,0.0766378987 C5.99779396,0.0766378987 6.03377111,0.147512195 6.03377111,0.234956848 L6.03377111,0.868142589 C6.03377111,0.955587242 5.99779396,1.02646154 5.95340539,1.02646154 Z M11.6953396,5.24784991 L0.192090056,5.24784991 C0.104645403,5.24784991 0.0337711069,5.17697561 0.0337711069,5.08953096 L0.0337711069,4.45634522 C0.0337711069,4.36890056 0.104645403,4.29802627 0.192090056,4.29802627 L0.192090056,4.29802627 L11.6953396,4.29802627 C11.7827842,4.29802627 11.8536585,4.36890056 11.8536585,4.45634522 L11.8536585,4.45634522 L11.8536585,5.08953096 C11.8536585,5.17697561 11.7827842,5.24784991 11.6953396,5.24784991 Z M11.6953396,9.46923827 L0.192090056,9.46923827 C0.104645403,9.46923827 0.0337711069,9.39836398 0.0337711069,9.31091932 L0.0337711069,8.67773358 C0.0337711069,8.59028893 0.104645403,8.51941463 0.192090056,8.51941463 L11.6953396,8.51941463 C11.7827842,8.51941463 11.8536585,8.59028893 11.8536585,8.67773358 L11.8536585,9.31091932 C11.8536585,9.39836398 11.7827842,9.46923827 11.6953396,9.46923827 Z"
                id="Shape"></path>
        </g>
    </g>
</svg>