<?xml version="1.0" encoding="UTF-8"?>
<svg width="512px" height="512px" viewBox="0 0 512 512" version="1.1"
    xmlns="http://www.w3.org/2000/svg">
    <title>Icon</title>
    <g id="Icon" stroke="none" stroke-width="1" fill="none" fill-rule="evenodd">
        <g id="Group" transform="translate(0.000000, 16.000000)" stroke="#979797">
            <path
                d="M135.370279,164.735988 L318.172675,340.301293 L33.5032941,446.197826 L135.370279,164.735988 Z"
                id="Path" stroke-width="40"></path>
            <path
                d="M195,140 L218.282559,113.076918 C230.304514,99.1751789 229.84112,78.4865532 217.208655,65.1315384 L201.003988,48 L201.003988,48"
                id="Path-2" stroke-width="30"></path>
            <path
                d="M242,185 L324.009028,99.1824537 C341.128085,81.2683834 341.355574,53.0615764 324.527695,34.8716785 L292.26713,0 L292.26713,0"
                id="Path-2" stroke-width="30"></path>
            <path
                d="M289,231 L417.115224,100.955305 C435.192575,82.6057014 464.697393,82.3142588 483.133594,100.303189 L499,115.78467 L499,115.78467"
                id="Path-2" stroke-width="30"></path>
            <path
                d="M334,276 L370.523159,238.24185 C388.466773,219.691491 418.05221,219.198441 436.604083,237.140591 C437.170128,237.688033 437.722245,238.249694 438.259904,238.825037 L473,276 L473,276"
                id="Path-2" stroke-width="30"></path>
        </g>
    </g>
</svg>