<svg version="1.2" xmlns="http://www.w3.org/2000/svg" xmlns:xlink="http://www.w3.org/1999/xlink" overflow="visible" preserveAspectRatio="none" viewBox="0 0 24 24" width="16" height="16"><g><path xmlns:default="http://www.w3.org/2000/svg" id="paper-plane-o" d="M21.03,2.78c-0.21-0.16-0.5-0.16-0.71,0L3.03,12.76c-0.33,0.15-0.47,0.55-0.32,0.88  c0.08,0.17,0.23,0.3,0.41,0.35l4.91,2v4.71c0,0.13,0.04,0.27,0.11,0.38c0.08,0.11,0.18,0.2,0.31,0.24c0.08,0.02,0.16,0.02,0.24,0  c0.19,0.01,0.37-0.07,0.49-0.22l3.1-3.4l5.49,2.24c0.08,0.03,0.17,0.05,0.26,0.05c0.11,0,0.22-0.03,0.32-0.08  c0.18-0.1,0.3-0.27,0.33-0.47l2.67-16C21.39,3.18,21.26,2.92,21.03,2.78L21.03,2.78z M12.39,16.3l5-8.3l-9,6.65l-3.5-1.43  l14.92-8.61l-2.3,13.78L12.39,16.3z" style="fill: rgb(0, 140, 191);" vector-effect="non-scaling-stroke"/></g></svg>