<svg version="1.2" xmlns="http://www.w3.org/2000/svg" xmlns:xlink="http://www.w3.org/1999/xlink" overflow="visible" preserveAspectRatio="none" viewBox="0 0 514 514" width="22" height="22"><g transform="translate(1, 1)"><path class="" d="M506 114H198c-3.3 0-6-2.7-6-6V84c0-3.3 2.7-6 6-6h308c3.3 0 6 2.7 6 6v24c0 3.3-2.7 6-6 6zm6 154v-24c0-3.3-2.7-6-6-6H198c-3.3 0-6 2.7-6 6v24c0 3.3 2.7 6 6 6h308c3.3 0 6-2.7 6-6zm0 160v-24c0-3.3-2.7-6-6-6H198c-3.3 0-6 2.7-6 6v24c0 3.3 2.7 6 6 6h308c3.3 0 6-2.7 6-6zM68.4 376c-19.9 0-36 16.1-36 36s16.1 36 36 36 35.6-16.1 35.6-36-15.7-36-35.6-36zM170.9 42.9l-7.4-7.4c-4.7-4.7-12.3-4.7-17 0l-78.8 79.2-38.4-38.4c-4.7-4.7-12.3-4.7-17 0l-8.9 8.9c-4.7 4.7-4.7 12.3 0 17l54.3 54.3c4.7 4.7 12.3 4.7 17 0l.2-.2L170.8 60c4.8-4.8 4.8-12.4.1-17.1zm.4 160l-7.4-7.4c-4.7-4.7-12.3-4.7-17 0l-78.8 79.2-38.4-38.4c-4.7-4.7-12.3-4.7-17 0L4 245.2c-4.7 4.7-4.7 12.3 0 17l54.3 54.3c4.7 4.7 12.3 4.7 17 0l-.2-.2 96.3-96.3c4.6-4.8 4.6-12.4-.1-17.1z" fill="currentColor" vector-effect="non-scaling-stroke" style="fill: rgb(0, 140, 191);"/></g></svg>